<svg width="1024" height="1024" viewBox="260 180 530 530" version="1.1" xmlns="http://www.w3.org/2000/svg" desc="Created with imagetracer.js version 1.2.6" ><path fill="#ffffff" stroke="#ffffff" stroke-width="1" opacity="0" d="M 0 0 L 1024 0 L 1024 1024 L 0 1024 L 0 0 Z M 506 206 L 505 207 L 494 207 L 477 210 L 449 218 L 427 228 L 412 238 L 406 244 Q 403 243 404 246 L 402 246 Q 390 261 382 281 L 377 299 L 376 314 L 375 315 L 375 335 L 376 336 L 376 342 Q 372 344 363 343 L 355 346 L 347 354 L 341 371 L 341 382 L 345 398 L 348 405 L 364 429 Q 373 441 389 446 L 394 453 Q 398 475 408 490 L 419 496 L 424 505 L 426 516 L 426 525 L 427 526 L 427 555 L 425 562 Q 421 567 415 569 L 409 570 L 342 594 L 339 594 L 319 602 L 316 602 L 299 608 L 290 613 Q 284 618 281 627 Q 280 635 283 639 L 289 644 L 321 668 L 320 672 L 321 679 L 325 681 L 725 681 L 727 680 L 729 675 L 728 668 L 764 642 Q 769 638 771 632 Q 772 622 769 618 L 764 612 L 755 608 L 752 608 L 749 606 L 717 596 L 714 594 L 711 594 L 691 586 L 676 582 L 662 576 L 659 576 L 617 561 L 614 557 L 613 518 L 612 517 L 612 502 L 614 498 L 621 492 Q 626 488 628 481 L 632 454 L 634 448 Q 647 442 659 432 Q 661 433 660 430 L 662 430 L 662 428 L 664 428 L 673 415 L 678 403 L 678 397 L 683 372 L 683 360 L 678 349 Q 674 343 667 340 L 662 340 L 651 343 L 652 327 L 653 326 L 652 296 L 648 278 Q 642 258 630 246 Q 609 224 578 214 L 543 207 L 506 206 Z " /><path fill="#ffffff" stroke="#ffffff" stroke-width="1" opacity="0" d="M 507.5 223 L 542.5 224 L 543.5 225 L 550.5 225 L 566.5 228 L 584.5 234 L 599.5 242 L 620 260.5 L 632 281.5 L 637 297.5 L 637 302.5 L 640 315.5 L 640 343 L 634.5 343 L 624.5 339 L 606.5 335 L 581.5 334 L 580.5 335 L 568.5 335 L 567.5 336 L 556.5 337 L 538.5 343 L 531.5 343 L 522.5 340 L 510.5 340 L 501.5 343 L 496.5 343 L 488.5 338 L 470.5 333 L 435.5 333 L 428.5 335 L 422.5 335 L 396.5 343 L 392 343 L 391 308.5 Q 398 271.5 422.5 252 L 439.5 240 L 457.5 232 L 484.5 225 L 506.5 224 L 507.5 223 Z M 449 309 L 437 312 L 431 315 L 422 325 L 422 326 L 426 326 L 437 322 L 455 322 L 482 329 Q 488 330 491 328 L 492 326 L 490 319 L 486 314 L 476 310 L 471 309 L 449 309 Z M 564 310 L 544 314 Q 539 317 537 324 L 541 329 L 550 329 L 576 324 L 592 325 L 606 331 L 608 330 L 603 323 L 591 314 L 572 310 L 564 310 Z " /><path fill="#ffffff" stroke="#ffffff" stroke-width="1" opacity="0" d="M 441.5 345 L 477.5 346 Q 484.3 347.3 488 351.5 L 492 359.5 L 492 377.5 L 490 386 L 479.5 389 L 468.5 389 L 467.5 390 L 456.5 390 L 455.5 391 L 418.5 391 Q 417.3 388.7 412.5 390 L 408 385.5 L 403 369.5 L 402 356.5 L 404.5 353 L 418.5 348 L 430.5 347 L 431.5 346 L 440.5 346 L 441.5 345 Z M 435 355 Q 422 357 415 366 L 417 368 L 425 366 L 463 367 L 464 368 L 475 368 L 476 367 Q 479 368 477 363 L 474 359 L 467 357 L 435 355 Z M 466 372 L 457 375 L 437 375 L 436 374 Q 432 373 433 377 L 438 380 L 445 382 L 458 381 L 467 377 L 469 374 L 466 372 Z " /><path fill="#ffffff" stroke="#ffffff" stroke-width="1" opacity="0" d="M 566.5 348 L 602.5 348 Q 604.2 350.8 610.5 349 L 621.5 352 L 626 355.5 Q 629.9 363.1 628 376.5 L 626 386.5 L 622.5 390 L 615.5 392 L 589.5 392 L 588.5 391 L 569.5 391 L 568.5 390 L 548.5 389 L 545 386.5 L 543 378.5 L 543 369.5 L 542 368.5 L 542 355.5 L 550.5 351 L 566.5 348 Z M 584 355 L 575 357 L 565 357 L 556 360 Q 552 362 554 367 L 558 368 Q 564 370 566 367 L 594 367 L 595 366 Q 605 365 611 368 L 616 368 L 616 366 Q 610 359 601 356 L 584 355 Z M 563 372 L 563 375 L 567 378 L 576 381 Q 591 383 598 378 L 599 374 L 597 373 L 591 375 L 576 375 L 568 372 L 563 372 Z " /><path fill="#ffffff" stroke="#ffffff" stroke-width="1" opacity="0" d="M 656.5 354 Q 667.6 352.4 670 359.5 L 672 365.5 L 672 382.5 L 667 399.5 L 662 409.5 L 647.5 426 L 641.5 430 L 633.5 432 L 631 431 L 636 417.5 L 639.5 413 L 646 407.5 L 654 398.5 L 657 391.5 L 660 388.5 Q 662.9 384.9 662 377.5 L 659 369 L 662 370.5 L 663 380.5 L 664.5 382 Q 667.8 383.1 667 380.5 L 669 369.5 L 668 365.5 L 663.5 361 L 658.5 360 L 651.5 363 L 645 368 Q 646 359.8 652.5 356 L 656.5 354 Z " /><path fill="#ffffff" stroke="#ffffff" stroke-width="1" opacity="0" d="M 363.5 355 Q 377.5 353.5 382 361.5 L 384 368 Q 378 367 374.5 362 L 364.5 361 L 360 365.5 L 359 373.5 L 362 386 Q 365.8 385 367 387.5 L 368.5 390 L 371 391.5 L 375 399.5 L 388.5 414 L 391.5 415 L 393.5 414 L 399 424.5 L 399 429.5 L 398 432 Q 387.9 433.3 382.5 429 L 368 415.5 Q 354.5 399 353 370.5 L 356 360.5 L 360.5 356 L 363.5 355 Z " /><path fill="#ffffff" stroke="#ffffff" stroke-width="1" opacity="0" d="M 511.5 358 L 521.5 358 L 528 363.5 L 530 368.5 L 530 375.5 L 534 393.5 Q 538 403.5 546 409.5 L 547 414.5 L 541.5 417 Q 539.3 411.7 530.5 413 Q 525.1 418.6 514.5 419 L 504.5 414 L 496.5 413 L 494 414 L 492.5 418 L 487 416 L 487 410.5 Q 496 402 501 389.5 L 504 376.5 L 504 367.5 L 508.5 360 L 511.5 358 Z " /><path fill="#ffffff" stroke="#ffffff" stroke-width="1" opacity="0" d="M 387.5 384 L 390 387.5 L 394 412 Q 391 413.3 392 409.5 L 384 398.5 L 384 391.5 L 387.5 384 Z " /><path fill="#ffffff" stroke="#ffffff" stroke-width="1" opacity="0" d="M 642.5 390 Q 644.8 391.8 644 396.5 L 640.5 402 L 640 400.5 L 642.5 390 Z " /><path fill="#ffffff" stroke="#ffffff" stroke-width="1" opacity="0" d="M 474.5 399 Q 481.8 396.4 480 402.5 Q 475.5 405 477 413.5 L 480.5 418 L 487.5 421 L 491.5 421 L 496.5 420 L 498.5 422 L 509.5 426 L 522.5 426 L 532.5 422 L 545.5 422 L 555 415.5 L 557 406.5 L 554 401.5 L 555.5 400 L 564.5 400 L 565.5 401 L 579.5 401 L 580.5 402 L 629 402 L 628 410.5 L 622 425.5 L 612.5 436 L 607 440.5 L 606 444.5 Q 606.8 447.8 611.5 447 L 616.5 444 L 617 454.5 L 616 455.5 L 615 472.5 Q 613.1 480.2 607.5 484 L 601.5 488 L 578.5 498 L 531.5 515 L 526.5 516 L 509.5 516 L 436.5 490 Q 425.1 485.4 418 476.5 L 415 470.5 L 413 444.5 Q 414.3 441.7 415.5 444 L 421.5 445 Q 424.5 444.5 424 440.5 L 408 423.5 Q 402 416 402 402.5 L 403.5 401 L 461.5 401 L 462.5 400 L 473.5 400 L 474.5 399 Z M 444 433 L 440 435 Q 435 438 434 444 L 434 451 L 439 458 L 442 458 L 440 454 L 440 444 L 446 435 L 444 433 Z M 586 433 L 584 435 Q 589 438 591 446 Q 592 450 590 452 L 590 458 L 593 458 L 595 456 L 597 450 L 596 440 Q 594 433 586 433 Z M 450 443 L 446 444 L 445 450 L 449 452 L 462 453 L 463 454 L 497 455 L 498 456 L 539 456 L 540 455 L 559 455 L 560 454 L 569 454 L 570 453 L 581 452 L 584 448 L 582 444 L 577 444 L 568 447 L 560 447 L 559 446 L 491 446 L 490 447 L 465 447 L 450 443 Z M 498 464 L 493 467 L 502 471 L 513 472 L 514 473 L 531 472 L 538 469 L 539 466 L 537 465 L 500 465 L 498 464 Z " /><path fill="#ffffff" stroke="#ffffff" stroke-width="1" opacity="0" d="M 441.5 504 L 481.5 520 L 505.5 528 L 527.5 528 L 596 504 L 600 568.5 L 604 576.5 L 605 583.5 Q 600.8 599.3 589.5 608 Q 574.6 622.1 553.5 630 L 537.5 634 L 514.5 635 L 486.5 630 L 471.5 624 Q 453.8 615.7 442 601.5 Q 435.8 594.2 435 581.5 L 439 568.5 L 439 507.5 L 441.5 504 Z " /><path fill="#ffffff" stroke="#ffffff" stroke-width="1" opacity="0" d="M 615.5 580 L 619 582.5 L 618 596.5 L 612 612.5 Q 602.7 628.7 589 640.5 L 591.5 642 L 606 632 L 618 615.5 L 622 607.5 L 626 593.5 L 626 585.5 L 628.5 583 L 731.5 614 L 746.5 620 L 750 623.5 L 751 630.5 L 750 633.5 L 742.5 641 L 709.5 660 L 706 663.5 L 703.5 667 L 680.5 666 L 679.5 667 L 669.5 667 L 666.5 666 L 662.5 667 L 661.5 666 L 650.5 666 L 647.5 667 Q 645.8 664.3 639.5 666 L 638.5 667 L 341.5 667 L 338 664.5 L 334.5 660 L 306.5 640 L 301 634.5 L 300 627.5 L 304.5 622 L 326.5 612 L 329.5 612 Q 364.7 598.2 403.5 588 L 405 589.5 L 406 604 L 408.5 605 L 410 603.5 L 410 587.5 L 411.5 586 Q 415.3 584.8 414 588.5 L 420 610.5 Q 427.4 624.6 439.5 634 Q 452.6 643.9 469.5 650 L 485.5 654 L 502 656 Q 503.1 653.3 500.5 654 L 498.5 652 L 491.5 651 L 476.5 646 L 457.5 637 Q 442.4 628.6 432 615.5 Q 422.3 604.7 420 586.5 L 422.5 581 L 425 582.5 L 426 590.5 L 430 601.5 Q 437.1 613.4 447.5 622 L 467.5 634 L 497.5 644 L 502.5 644 L 509.5 646 L 535.5 646 Q 575.9 638.9 598 613.5 L 606 602.5 L 610 593.5 L 612 584.5 L 615.5 580 Z " /><path fill="#ffffff" stroke="#ffffff" stroke-width="1" opacity="0.9803921568627451" d="M 505.5 206 L 542.5 207 L 577.5 214 Q 609.5 224 630 245.5 Q 642.2 258.3 648 277.5 L 652 295.5 L 653 325.5 L 652 326.5 L 651 343 L 661.5 340 L 666.5 340 Q 673.9 342.6 678 348.5 L 683 359.5 L 683 371.5 L 678 396.5 L 678 402.5 L 673 414.5 L 664 428 L 662 428 L 662 430 L 660 430 Q 661.1 432.7 658.5 432 Q 647.4 441.8 634 448 L 632 453.5 L 628 480.5 Q 626.1 488.1 620.5 492 L 614 497.5 L 612 501.5 L 612 516.5 L 613 517.5 L 614 556.5 L 616.5 561 L 658.5 576 L 661.5 576 L 675.5 582 L 690.5 586 L 710.5 594 L 713.5 594 L 716.5 596 L 748.5 606 L 751.5 608 L 754.5 608 L 763.5 612 L 769 617.5 Q 772.3 622.2 771 631.5 Q 768.8 638.3 763.5 642 L 728 667.5 L 729 674.5 L 726.5 680 L 724.5 681 L 324.5 681 L 321 678.5 L 320 671.5 L 321 667.5 L 288.5 644 L 283 638.5 Q 280 634.5 281 626.5 Q 283.5 618 289.5 613 L 298.5 608 L 315.5 602 L 318.5 602 L 338.5 594 L 341.5 594 L 408.5 570 L 414.5 569 Q 421.3 566.8 425 561.5 L 427 554.5 L 427 525.5 L 426 524.5 L 426 515.5 L 424 504.5 L 418.5 496 L 408 490 Q 397.9 474.9 394 452.5 L 388.5 446 Q 372.8 440.8 364 428.5 L 348 404.5 L 345 397.5 L 341 381.5 L 341 370.5 L 347 353.5 L 354.5 346 L 362.5 343 Q 372.1 344.4 376 342 L 376 335.5 L 375 334.5 L 375 314.5 L 376 313.5 L 377 298.5 L 382 280.5 Q 389.8 260.6 402 246 L 404 246 Q 402.9 243.3 405.5 244 L 411.5 238 L 426.5 228 L 448.5 218 L 476.5 210 L 493.5 207 L 504.5 207 L 505.5 206 Z M 508 223 L 507 224 L 485 225 L 458 232 L 440 240 L 423 252 Q 398 271 391 309 L 392 343 L 397 343 L 423 335 L 429 335 L 436 333 L 471 333 L 489 338 L 497 343 L 502 343 L 511 340 L 523 340 L 532 343 L 539 343 L 557 337 L 568 336 L 569 335 L 581 335 L 582 334 L 607 335 L 625 339 L 635 343 L 640 343 L 640 316 L 637 303 L 637 298 L 632 282 L 620 261 L 600 242 L 585 234 L 567 228 L 551 225 L 544 225 L 543 224 L 508 223 Z M 442 345 L 441 346 L 432 346 L 431 347 L 419 348 L 405 353 L 402 357 L 403 370 L 408 386 L 413 390 Q 417 389 419 391 L 456 391 L 457 390 L 468 390 L 469 389 L 480 389 L 490 386 L 492 378 L 492 360 L 488 352 Q 484 347 478 346 L 442 345 Z M 567 348 L 551 351 L 542 356 L 542 369 L 543 370 L 543 379 L 545 387 L 549 389 L 569 390 L 570 391 L 589 391 L 590 392 L 616 392 L 623 390 L 626 387 L 628 377 Q 630 363 626 356 L 622 352 L 611 349 Q 604 351 603 348 L 567 348 Z M 657 354 L 653 356 Q 646 360 645 368 L 652 363 L 659 360 L 664 361 L 668 366 L 669 370 L 667 381 Q 668 383 665 382 L 663 381 L 662 371 L 659 369 L 662 378 Q 663 385 660 389 L 657 392 L 654 399 L 646 408 L 640 413 L 636 418 L 631 431 L 634 432 L 642 430 L 648 426 L 662 410 L 667 400 L 672 383 L 672 366 L 670 360 Q 668 352 657 354 Z M 364 355 L 361 356 L 356 361 L 353 371 Q 354 399 368 416 L 383 429 Q 388 433 398 432 L 399 430 L 399 425 L 394 414 L 392 415 L 389 414 L 375 400 L 371 392 L 369 390 L 367 388 Q 366 385 362 386 L 359 374 L 360 366 L 365 361 L 375 362 Q 378 367 384 368 L 382 362 Q 378 353 364 355 Z M 512 358 L 509 360 L 504 368 L 504 377 L 501 390 Q 496 402 487 411 L 487 416 L 493 418 L 494 414 L 497 413 L 505 414 L 515 419 Q 525 419 531 413 Q 539 412 542 417 L 547 415 L 546 410 Q 538 403 534 394 L 530 376 L 530 369 L 528 364 L 522 358 L 512 358 Z M 388 384 L 384 392 L 384 399 L 392 410 Q 391 413 394 412 L 390 388 L 388 384 Z M 643 390 L 640 401 L 641 402 L 644 397 Q 645 392 643 390 Z M 475 399 L 474 400 L 463 400 L 462 401 L 404 401 L 402 403 Q 402 416 408 424 L 424 441 Q 425 445 422 445 L 416 444 Q 414 442 413 445 L 415 471 L 418 477 Q 425 485 437 490 L 510 516 L 527 516 L 532 515 L 579 498 L 602 488 L 608 484 Q 613 480 615 473 L 616 456 L 617 455 L 617 444 L 612 447 Q 607 448 606 445 L 607 441 L 613 436 L 622 426 L 628 411 L 629 402 L 581 402 L 580 401 L 566 401 L 565 400 L 556 400 L 554 402 L 557 407 L 555 416 L 546 422 L 533 422 L 523 426 L 510 426 L 499 422 L 497 420 L 492 421 L 488 421 L 481 418 L 477 414 Q 476 405 480 403 Q 482 396 475 399 Z M 442 504 L 439 508 L 439 569 L 435 582 Q 436 594 442 602 Q 454 616 472 624 L 487 630 L 515 635 L 538 634 L 554 630 Q 575 622 590 608 Q 601 599 605 584 L 604 577 L 600 569 L 596 504 L 528 528 L 506 528 L 482 520 L 442 504 Z M 616 580 L 612 585 L 610 594 L 606 603 L 598 614 Q 576 639 536 646 L 510 646 L 503 644 L 498 644 L 468 634 L 448 622 Q 437 613 430 602 L 426 591 L 425 583 L 423 581 L 420 587 Q 422 605 432 616 Q 442 629 458 637 L 477 646 L 492 651 L 499 652 L 501 654 Q 503 653 502 656 L 486 654 L 470 650 Q 453 644 440 634 Q 427 625 420 611 L 414 589 Q 415 585 412 586 L 410 588 L 410 604 L 409 605 L 406 604 L 405 590 L 404 588 Q 365 598 330 612 L 327 612 L 305 622 L 300 628 L 301 635 L 307 640 L 335 660 L 338 665 L 342 667 L 639 667 L 640 666 Q 646 664 648 667 L 651 666 L 662 666 L 663 667 L 667 666 L 670 667 L 680 667 L 681 666 L 704 667 L 706 664 L 710 660 L 743 641 L 750 634 L 751 631 L 750 624 L 747 620 L 732 614 L 629 583 L 626 586 L 626 594 L 622 608 L 618 616 L 606 632 L 592 642 L 589 641 Q 603 629 612 613 L 618 597 L 619 583 L 616 580 Z " /><path fill="#ffffff" stroke="#ffffff" stroke-width="1" opacity="0.9803921568627451" d="M 448.5 309 L 470.5 309 L 475.5 310 L 485.5 314 L 490 318.5 L 492 325.5 L 491 328 Q 488.3 329.9 481.5 329 L 454.5 322 L 436.5 322 L 425.5 326 L 421.5 326 L 422 324.5 L 430.5 315 L 436.5 312 L 448.5 309 Z " /><path fill="#ffffff" stroke="#ffffff" stroke-width="1" opacity="0.9803921568627451" d="M 563.5 310 L 571.5 310 L 590.5 314 L 603 322.5 L 608 329.5 L 605.5 331 L 591.5 325 L 575.5 324 L 549.5 329 L 540.5 329 L 537 323.5 Q 538.5 317 543.5 314 L 563.5 310 Z " /><path fill="#ffffff" stroke="#ffffff" stroke-width="1" opacity="0.9803921568627451" d="M 434.5 355 L 466.5 357 L 473.5 359 L 477 362.5 Q 478.9 367.9 475.5 367 L 474.5 368 L 463.5 368 L 462.5 367 L 424.5 366 L 416.5 368 L 415 365.5 Q 421.6 357.1 434.5 355 Z " /><path fill="#ffffff" stroke="#ffffff" stroke-width="1" opacity="0.9803921568627451" d="M 583.5 355 L 600.5 356 Q 610.1 358.9 616 365.5 L 616 368 L 610.5 368 Q 604.8 364.8 594.5 366 L 593.5 367 L 565.5 367 Q 563.7 369.8 557.5 368 L 554 367 Q 552.5 361.6 555.5 360 L 564.5 357 L 574.5 357 L 583.5 355 Z " /><path fill="#ffffff" stroke="#ffffff" stroke-width="1" opacity="0.9803921568627451" d="M 465.5 372 L 469 373.5 L 466.5 377 L 457.5 381 L 444.5 382 L 437.5 380 L 433 376.5 Q 431.8 372.8 435.5 374 L 436.5 375 L 456.5 375 L 465.5 372 Z " /><path fill="#ffffff" stroke="#ffffff" stroke-width="1" opacity="0.9803921568627451" d="M 563 372 L 567.5 372 L 575.5 375 L 590.5 375 L 596.5 373 L 599 374 L 598 378 Q 590.9 383 575.5 381 L 566.5 378 L 563 374.5 L 563 372 Z " /><path fill="#ffffff" stroke="#ffffff" stroke-width="1" opacity="0.9803921568627451" d="M 443.5 433 L 446 434.5 L 440 443.5 L 440 453.5 L 442 457.5 L 438.5 458 L 434 450.5 L 434 443.5 Q 435.3 437.8 439.5 435 L 443.5 433 Z " /><path fill="#ffffff" stroke="#ffffff" stroke-width="1" opacity="0.9803921568627451" d="M 585.5 433 Q 593.6 433.4 596 439.5 L 597 449.5 L 595 455.5 L 592.5 458 L 590 458 L 590 451.5 Q 592.3 450.3 591 445.5 Q 589 438.5 584 434.5 L 585.5 433 Z " /><path fill="#ffffff" stroke="#ffffff" stroke-width="1" opacity="0.9803921568627451" d="M 449.5 443 L 464.5 447 L 489.5 447 L 490.5 446 L 558.5 446 L 559.5 447 L 567.5 447 L 576.5 444 L 581.5 444 L 584 447.5 L 580.5 452 L 569.5 453 L 568.5 454 L 559.5 454 L 558.5 455 L 539.5 455 L 538.5 456 L 497.5 456 L 496.5 455 L 462.5 454 L 461.5 453 L 448.5 452 L 445 449.5 L 446 444 L 449.5 443 Z " /><path fill="#ffffff" stroke="#ffffff" stroke-width="1" opacity="0.9803921568627451" d="M 497.5 464 L 499.5 465 L 536.5 465 L 539 466 L 537.5 469 L 530.5 472 L 513.5 473 L 512.5 472 L 501.5 471 L 493 466.5 L 497.5 464 Z " /></svg>